# xmcd
#
# Track frame offsets:
#	150
#	13478
#	29856
#	49054
#	65078
#	86340
#	99017
#	117476
#	138667
#	146783
#	160472
#	174409
#	200311
#	215977
#	243702
#	265407
#	282365
#	299105
#
# Disc length: 4220 seconds
#
# Revision: 3
# Processed by: cddbd v1.5.2PL0 Copyright (c) Steve Scherf et al.
# Submitted via: dBpowerAMP V4.0
#
DISCID=30107a12
DTITLE=Various Artist - Jazz a Mezzanotte 4
DYEAR=1997
DGENRE=Jazz
TTITLE0=Miles Davis - Round Midnight
TTITLE1=McRae and Betty Carter - Stolen Moments
TTITLE2=Louis Armstrong - Stormy Weather
TTITLE3=Lester Young - Stardust
TTITLE4=Shirley Horn - Fever
TTITLE5=Jon Hendricks - Watermelon Man
TTITLE6=Nina Simone - Love Me Or Leave Me
TTITLE7=Ella Fitzgerald - Mack The Knife
TTITLE8=Anita O'Day - I've Got You Under My Skin
TTITLE9=Charlie Parker - Now's The Time
TTITLE10=Billie Holiday - The Man I Love
TTITLE11=Miles Davis - But Not For Me
TTITLE12=Sarah Vaughan - Over The Rainbow
TTITLE13=Dave Brubeck - Take Five
TTITLE14=Bill Evans - My Foolish Hearth
TTITLE15=Billy Eckstine - I Don't Stand A Ghost Of A Chance With You
TTITLE16=Oscar Peterson - Wave
TTITLE17=Coleman Hawkins - How Long Has Been Going On?
EXTD=
EXTT0=
EXTT1=
EXTT2=
EXTT3=
EXTT4=
EXTT5=
EXTT6=
EXTT7=
EXTT8=
EXTT9=
EXTT10=
EXTT11=
EXTT12=
EXTT13=
EXTT14=
EXTT15=
EXTT16=
EXTT17=
PLAYORDER=
